<svg width="64" height="64" viewBox="0 0 64 64" fill="none" xmlns="http://www.w3.org/2000/svg">
<path opacity="0.5" d="M0 32C0 14.3269 14.3269 0 32 0C49.6731 0 64 14.3269 64 32C64 49.6731 49.6731 64 32 64C14.3269 64 0 49.6731 0 32Z" fill="#E2FEF6"/>
<path d="M8 32C8 18.7452 18.7452 8 32 8C45.2548 8 56 18.7452 56 32C56 45.2548 45.2548 56 32 56C18.7452 56 8 45.2548 8 32Z" fill="#1EB88D"/>
<path fill-rule="evenodd" clip-rule="evenodd" d="M41.1945 22.0001C41.5873 21.9949 41.9099 22.3119 41.9151 22.7083L41.9991 29.167C42.0042 29.5634 41.69 29.8889 41.2972 29.8941C40.9044 29.8993 40.5819 29.5822 40.5767 29.1859L40.5152 24.4597L34.3944 30.8003C34.0678 31.1386 33.5252 31.1261 33.2144 30.773L28.2625 25.1492L23.243 30.8499C22.9821 31.1462 22.5325 31.173 22.2388 30.9097C21.9452 30.6464 21.9187 30.1928 22.1796 29.8965L27.6599 23.6725C27.9806 23.3083 28.5444 23.3083 28.8651 23.6725L33.8377 29.3198L39.4962 23.4581L34.8125 23.5201C34.4197 23.5253 34.0971 23.2083 34.0919 22.8119C34.0868 22.4156 34.401 22.0901 34.7938 22.0848L41.1945 22.0001Z" fill="white"/>
<mask id="path-4-inside-1" fill="white">
<rect x="22" y="33.8181" width="4.7617" height="8.1818" rx="1"/>
</mask>
<rect x="22" y="33.8181" width="4.7617" height="8.1818" rx="1" stroke="white" stroke-width="3" mask="url(#path-4-inside-1)"/>
<rect x="29.6187" y="33.8181" width="4.7617" height="8.1818" rx="1" fill="white"/>
<rect x="37.2383" y="33.8181" width="4.7617" height="8.1818" rx="1" fill="white"/>
</svg>
