<svg width="32" height="32" viewBox="0 0 32 32" fill="none" xmlns="http://www.w3.org/2000/svg">
<path d="M0 16C0 7.16344 7.16344 0 16 0C24.8366 0 32 7.16344 32 16C32 24.8366 24.8366 32 16 32C7.16344 32 0 24.8366 0 16Z" fill="#DCEBFF"/>
<path d="M19.1738 17.3262C18.9563 16.9386 18.6175 16.5982 18.1588 16.3061C17.6994 16.0134 17.06 15.7455 16.2413 15.5017C15.4225 15.2586 14.8344 14.9882 14.4775 14.6897C14.12 14.3925 13.9412 13.9923 13.9412 13.4902C13.9412 12.9493 14.1106 12.5267 14.4494 12.2245C14.7875 11.9215 15.2762 11.7707 15.915 11.7707C16.5269 11.7707 17.0138 11.975 17.3731 12.3842C17.5419 12.5757 17.6706 12.7985 17.7606 13.0524C17.805 13.179 17.885 13.4717 17.8894 13.4845C18.015 13.8675 18.2294 14.0909 18.5994 14.0909C19.0081 14.0909 19.3394 13.8275 19.3394 13.3375C19.3394 13.2452 19.32 13.1478 19.3081 13.0905C19.1956 12.5204 18.9737 12.0437 18.6412 11.66C18.1387 11.0809 17.4369 10.7341 16.5344 10.6215L16.5312 10.6208V9.63636C16.5312 9.28509 16.2512 9 15.9062 9C15.5612 9 15.2812 9.28509 15.2812 9.63636V10.6234C14.4113 10.7284 13.7225 11.03 13.2206 11.5346C12.7075 12.0507 12.4506 12.7113 12.4506 13.5169C12.4506 14.3079 12.7125 14.9602 13.2363 15.4737C13.76 15.9866 14.5937 16.4035 15.7375 16.7229C16.5594 16.9736 17.1431 17.2536 17.49 17.5629C17.8356 17.8728 18.0094 18.2534 18.0094 18.7052C18.0094 19.241 17.8075 19.6635 17.405 19.9728C17.0019 20.2821 16.4488 20.4367 15.745 20.4367C15.0256 20.4367 14.3919 20.2528 14 19.8844C13.7362 19.6368 13.5619 19.318 13.4756 18.9279C13.4725 18.9133 13.4269 18.7637 13.3944 18.702C13.2719 18.4665 13.0225 18.3081 12.7419 18.3081C12.3325 18.3068 12 18.6454 12 19.0628C12 19.2461 12.09 19.5057 12.1175 19.5821C12.2581 19.9735 12.4863 20.3292 12.7719 20.6162C13.3238 21.1692 14.1625 21.488 15.125 21.5815V22.3636C15.125 22.7149 15.4044 23 15.7494 23C16.0944 23 16.3744 22.7149 16.3744 22.3636V21.5936L16.39 21.593C17.3725 21.4995 18.1369 21.2004 18.6819 20.6938C19.2269 20.1879 19.5 19.5197 19.5 18.6899C19.5 18.1694 19.3906 17.7144 19.1738 17.3262Z" fill="#3467BC"/>
</svg>
