<svg width="64" height="64" viewBox="0 0 64 64" fill="none" xmlns="http://www.w3.org/2000/svg">
<path d="M0 32C0 14.3269 14.3269 0 32 0C49.6731 0 64 14.3269 64 32C64 49.6731 49.6731 64 32 64C14.3269 64 0 49.6731 0 32Z" fill="#EEF5FF"/>
<path d="M8 32C8 18.7452 18.7452 8 32 8C45.2548 8 56 18.7452 56 32C56 45.2548 45.2548 56 32 56C18.7452 56 8 45.2548 8 32Z" fill="#3467BC"/>
<path d="M32.0003 22.8333C29.0154 22.8333 24.9533 24.9241 23.916 25.4857C23.7596 25.5704 23.6661 25.7296 23.6681 25.9074C23.6807 27.016 23.8039 31.1103 24.917 33.5942C26.3261 36.7389 30.5712 40.0903 31.7142 40.9541C31.8858 41.0838 32.1148 41.0838 32.2864 40.9541C33.4294 40.0903 37.6744 36.7389 39.0836 33.5942C40.1967 31.1103 40.3199 27.016 40.3325 25.9074C40.3345 25.7296 40.241 25.5704 40.0846 25.4857C39.0473 24.9241 34.9852 22.8333 32.0003 22.8333Z" fill="white" stroke="white" stroke-width="1.5"/>
<path d="M34.681 32.9473C34.524 32.6705 34.2793 32.4273 33.948 32.2186C33.6162 32.0095 33.1544 31.8182 32.5631 31.6441C31.9718 31.4705 31.547 31.2773 31.2893 31.0641C31.0311 30.8518 30.902 30.5659 30.902 30.2073C30.902 29.8209 31.0243 29.5191 31.269 29.3032C31.5132 29.0868 31.8662 28.9791 32.3275 28.9791C32.7694 28.9791 33.121 29.125 33.3806 29.4173C33.5025 29.5541 33.5955 29.7132 33.6605 29.8945C33.6925 29.985 33.7503 30.1941 33.7534 30.2032C33.8442 30.4768 33.999 30.6364 34.2662 30.6364C34.5614 30.6364 34.8007 30.4482 34.8007 30.0982C34.8007 30.0323 34.7867 29.9627 34.7781 29.9218C34.6968 29.5145 34.5366 29.1741 34.2965 28.9C33.9335 28.4864 33.4266 28.2386 32.7748 28.1582L32.7726 28.1577V27.4545C32.7726 27.2036 32.5703 27 32.3212 27C32.072 27 31.8698 27.2036 31.8698 27.4545V28.1595C31.2415 28.2345 30.744 28.45 30.3816 28.8105C30.011 29.1791 29.8255 29.6509 29.8255 30.2264C29.8255 30.7914 30.0146 31.2573 30.3928 31.6241C30.7711 31.9905 31.3733 32.2882 32.1993 32.5164C32.7929 32.6955 33.2145 32.8955 33.465 33.1164C33.7146 33.3377 33.8401 33.6095 33.8401 33.9323C33.8401 34.315 33.6943 34.6168 33.4036 34.8377C33.1125 35.0586 32.713 35.1691 32.2047 35.1691C31.6852 35.1691 31.2275 35.0377 30.9444 34.7745C30.754 34.5977 30.628 34.37 30.5657 34.0914C30.5635 34.0809 30.5305 33.9741 30.507 33.93C30.4186 33.7618 30.2385 33.6486 30.0358 33.6486C29.7401 33.6477 29.5 33.8895 29.5 34.1877C29.5 34.3186 29.565 34.5041 29.5849 34.5586C29.6864 34.8382 29.8512 35.0923 30.0575 35.2973C30.456 35.6923 31.0618 35.92 31.7569 35.9868V36.5455C31.7569 36.7964 31.9587 37 32.2079 37C32.457 37 32.6593 36.7964 32.6593 36.5455V35.9955L32.6706 35.995C33.3801 35.9282 33.9322 35.7145 34.3258 35.3527C34.7194 34.9914 34.9167 34.5141 34.9167 33.9214C34.9167 33.5495 34.8377 33.2245 34.681 32.9473Z" fill="#3467BC"/>
</svg>
