<svg width="64" height="64" viewBox="0 0 64 64" fill="none" xmlns="http://www.w3.org/2000/svg">
<path d="M0 32C0 14.3269 14.3269 0 32 0C49.6731 0 64 14.3269 64 32C64 49.6731 49.6731 64 32 64C14.3269 64 0 49.6731 0 32Z" fill="#F1EEFF"/>
<path d="M8 32C8 18.7452 18.7452 8 32 8C45.2548 8 56 18.7452 56 32C56 45.2548 45.2548 56 32 56C18.7452 56 8 45.2548 8 32Z" fill="#3442BC"/>
<path d="M29.5562 24C29.3535 24 29.1648 24.0301 28.9839 24.0802C28.8428 24.1182 28.6978 24.1603 28.5706 24.2245C28.5646 24.2265 28.5607 24.2365 28.5547 24.2405C28.4176 24.3127 28.2924 24.4028 28.1732 24.497C28.1672 24.5011 28.1632 24.5091 28.1573 24.5131C28.04 24.6093 27.9367 24.7055 27.8393 24.8177C27.8353 24.8237 27.8274 24.8277 27.8234 24.8338C27.7201 24.954 27.6306 25.0883 27.5531 25.2186C27.3087 25.1244 27.0643 25.0703 26.8378 25.0582C26.4622 25.0402 26.1263 25.1224 25.8362 25.2827C25.2579 25.6034 24.8505 26.0904 24.4213 26.4532C23.9821 26.824 22.6686 27.798 21.4962 28.6498C20.3237 29.5016 19.2864 30.2532 19.2864 30.2532C19.1055 30.3414 18.9943 30.5278 19.0002 30.7302C19.0062 30.9326 19.1294 31.113 19.3142 31.1892C19.501 31.2673 19.7136 31.2272 19.8587 31.0869C19.8587 31.0869 20.9238 30.3394 22.1003 29.4836C23.2767 28.6278 24.5624 27.6838 25.089 27.2388C25.5997 26.8059 25.9932 26.367 26.329 26.1806C26.6052 26.0283 26.8199 25.9842 27.2193 26.1806C27.2113 26.2507 27.2034 26.3209 27.2034 26.389V32.4979L26.5039 32.8186C26.3171 32.8767 26.18 33.0411 26.1522 33.2355C26.1243 33.4319 26.2118 33.6263 26.3747 33.7365C26.5377 33.8448 26.7483 33.8508 26.9172 33.7485L31.6229 31.568H31.6388C32.3085 31.2072 33.01 30.8765 33.5465 30.7663C34.0831 30.656 34.3514 30.7021 34.5799 31.0068C34.8482 31.3635 34.9098 31.7563 34.7866 32.1933C34.6634 32.6302 34.3355 33.1052 33.7691 33.508C32.5828 34.3538 30.7486 34.9832 30.7486 34.9832L30.6532 35.0152L30.5737 35.0794C29.6298 35.8891 29.0833 36.6587 28.3957 37.1798C27.7081 37.7009 26.8576 38.0456 25.1049 38.0456H25.0731L19.5407 38.3663C19.2606 38.3843 19.0459 38.6288 19.0638 38.9114C19.0817 39.194 19.3241 39.4105 19.6043 39.3924L25.1049 39.0718C25.1168 39.0718 25.1248 39.0718 25.1367 39.0718C26.4363 39.0678 27.3803 38.8513 28.1255 38.5106C28.2546 38.8954 28.5209 39.2241 28.9362 39.3604C29.5205 39.5508 30.0968 39.4947 30.5578 39.2962C30.7625 39.2081 30.9493 39.0878 31.1142 38.9595C31.2752 39.3323 31.5633 39.6811 32.0045 39.8414C32.4675 40.0097 32.9285 40.0478 33.3399 39.9376C33.7512 39.8274 34.0871 39.5929 34.405 39.2962C34.4587 39.2461 34.4944 39.2081 34.5322 39.168C34.6395 39.2421 34.7627 39.2922 34.8978 39.3283C35.5576 39.5027 36.3286 39.3123 36.9168 38.719C37.4335 38.1979 37.7435 37.3982 37.8548 36.314H42.2902C42.4432 36.314 42.5903 36.2959 42.7354 36.2659C43.4547 36.1155 44.0449 35.6065 44.3251 34.9351C44.3808 34.8008 44.4225 34.6645 44.4523 34.5182C44.4821 34.3719 44.5 34.2235 44.5 34.0692V26.3409C44.5 26.2628 44.4921 26.1926 44.4841 26.1165C44.4583 25.89 44.4026 25.6675 44.3092 25.4591C44.2476 25.3128 44.1761 25.1885 44.0867 25.0582C44.0847 25.0542 44.0886 25.0462 44.0867 25.0422C43.7369 24.5391 43.1984 24.1704 42.5923 24.0481C42.4432 24.016 42.3022 24 42.1472 24H29.5562ZM28.2208 26.5654H43.4826V28.6177H28.2208V26.5654ZM30.7645 36.314H31.1142C31.0844 36.6747 31.0327 37.2179 30.9711 37.5646C30.9632 37.6067 30.9612 37.6488 30.9552 37.6929C30.9274 37.7109 30.8996 37.7329 30.8757 37.757C30.6572 38.0196 30.4048 38.238 30.1445 38.3502C29.8841 38.4625 29.6238 38.5026 29.2542 38.3823C29.1628 38.3523 29.0594 38.2039 29.0475 37.9654C29.7033 37.4604 30.1862 36.8872 30.7645 36.314ZM32.1476 36.314H34.0553C34.0195 36.5525 33.9877 36.825 33.9599 37.0996C33.9261 37.4343 33.8963 37.8352 33.9758 38.238C33.948 38.2761 33.936 38.2841 33.8963 38.3342C33.8128 38.4404 33.6658 38.5948 33.7214 38.5427C33.473 38.7751 33.2604 38.9074 33.0696 38.9595C32.8788 39.0116 32.6781 38.9976 32.3542 38.8794C32.1813 38.8172 32.0919 38.705 32.0204 38.4946C31.9488 38.2841 31.929 37.9855 31.9727 37.741C32.0601 37.2559 32.1217 36.6366 32.1476 36.314ZM35.0886 36.314H36.8215C36.7181 37.1778 36.4816 37.7149 36.2014 37.9975C35.8239 38.3783 35.5039 38.4264 35.1522 38.3342C35.035 38.3021 35.025 38.2741 34.9773 38.0616C34.9296 37.8492 34.9296 37.5165 34.9614 37.2118C34.9952 36.8832 35.0449 36.5645 35.0886 36.314Z" fill="white"/>
</svg>
