<svg width="32" height="32" viewBox="0 0 32 32" fill="none" xmlns="http://www.w3.org/2000/svg">
<path d="M0 16C0 7.16344 7.16344 0 16 0C24.8366 0 32 7.16344 32 16C32 24.8366 24.8366 32 16 32C7.16344 32 0 24.8366 0 16Z" fill="#C5FFEE"/>
<path fill-rule="evenodd" clip-rule="evenodd" d="M17 19C19.7614 19 22 16.7614 22 14C22 11.2386 19.7614 9 17 9C14.2386 9 12 11.2386 12 14C12 16.7614 14.2386 19 17 19ZM17 20C20.3137 20 23 17.3137 23 14C23 10.6863 20.3137 8 17 8C13.6863 8 11 10.6863 11 14C11 17.3137 13.6863 20 17 20Z" fill="#1EB88D"/>
<path fill-rule="evenodd" clip-rule="evenodd" d="M13.3536 17.6464C13.5488 17.8417 13.5488 18.1583 13.3536 18.3536L9.85355 21.8536C9.65829 22.0488 9.34171 22.0488 9.14645 21.8536C8.95118 21.6583 8.95118 21.3417 9.14645 21.1464L12.6464 17.6464C12.8417 17.4512 13.1583 17.4512 13.3536 17.6464Z" fill="#1EB88D"/>
</svg>
