<svg width="32" height="32" viewBox="0 0 32 32" fill="none" xmlns="http://www.w3.org/2000/svg">
<path d="M0 16C0 7.16344 7.16344 0 16 0C24.8366 0 32 7.16344 32 16C32 24.8366 24.8366 32 16 32C7.16344 32 0 24.8366 0 16Z" fill="#E6E0FF"/>
<path fill-rule="evenodd" clip-rule="evenodd" d="M11.4286 9H20.5714C22.465 9 24 10.567 24 12.5V19.5C24 21.433 22.465 23 20.5714 23H11.4286C9.53502 23 8 21.433 8 19.5V12.5C8 10.567 9.53502 9 11.4286 9ZM11.4286 10.1667C10.1662 10.1667 9.14286 11.2113 9.14286 12.5V19.5C9.14286 20.7887 10.1662 21.8333 11.4286 21.8333H20.5714C21.8338 21.8333 22.8571 20.7887 22.8571 19.5V12.5C22.8571 11.2113 21.8338 10.1667 20.5714 10.1667H11.4286Z" fill="#3442BC"/>
<path d="M8 12.5H24V13.6667H8V12.5Z" fill="#3442BC"/>
<path d="M11.4286 17.75C11.4286 17.4278 11.6844 17.1667 12 17.1667H15.4286C15.7442 17.1667 16 17.4278 16 17.75C16 18.0722 15.7442 18.3333 15.4286 18.3333H12C11.6844 18.3333 11.4286 18.0722 11.4286 17.75Z" fill="#3442BC"/>
</svg>
