<svg width="100" height="17" viewBox="0 0 100 17" fill="none" xmlns="http://www.w3.org/2000/svg">
<path d="M0 16.7606V0H7.23757C8.94242 0 10.3095 0.502817 11.3389 1.50845C12.3843 2.51409 12.907 3.84695 12.907 5.50704C12.907 6.2892 12.7864 7.00751 12.5451 7.66197C12.3039 8.30047 12.0144 8.81127 11.6766 9.19437C11.3389 9.5615 10.9931 9.87277 10.6392 10.1282C10.3015 10.3836 10.012 10.5512 9.77072 10.631L9.40884 10.7746L13.5101 16.7606H9.40884L5.5488 11.0141H3.61878V16.7606H0ZM3.61878 7.78169H6.99632C7.67182 7.78169 8.21866 7.58216 8.63683 7.1831C9.07108 6.76808 9.28821 6.20939 9.28821 5.50704C9.28821 4.8047 9.07108 4.25399 8.63683 3.85493C8.21866 3.43991 7.67182 3.2324 6.99632 3.2324H3.61878V7.78169Z" fill="#2F374B"/>
<path d="M20.7656 17C18.8195 17 17.2835 16.4254 16.1577 15.2761C15.0479 14.1108 14.493 12.4906 14.493 10.4155C14.493 8.34038 15.0479 6.72817 16.1577 5.57887C17.2835 4.41362 18.8195 3.83099 20.7656 3.83099C22.6152 3.83099 24.1029 4.4216 25.2288 5.60282C26.3546 6.78404 26.9175 8.30845 26.9175 10.1761L26.7969 11.493H17.9912C18.2807 13.169 19.2055 14.007 20.7656 14.007C21.3768 14.007 21.8432 13.9113 22.1649 13.7197C22.4865 13.5282 22.7841 13.2249 23.0575 12.8099H26.6763C26.3385 14.023 25.6871 15.0286 24.7221 15.8268C23.7571 16.6089 22.4383 17 20.7656 17ZM17.9912 8.97887H23.4194C23.2907 8.3723 22.9932 7.8615 22.5267 7.44648C22.0764 7.03146 21.4894 6.82394 20.7656 6.82394C19.3503 6.82394 18.4255 7.54225 17.9912 8.97887Z" fill="#2F374B"/>
<path d="M29.2085 16.7606V4.07042H32.1035L32.4654 5.50704H32.586C33.4545 4.38967 34.5804 3.83099 35.9635 3.83099C37.3789 3.83099 38.5128 4.2939 39.3652 5.21972C40.2337 6.12958 40.668 7.38263 40.668 8.97887V16.7606H37.2904V9.45775C37.2904 8.6277 37.0894 7.98122 36.6873 7.51831C36.2852 7.0554 35.7223 6.82394 34.9985 6.82394C34.2748 6.82394 33.6877 7.07136 33.2374 7.5662C32.8031 8.04507 32.586 8.67559 32.586 9.45775V16.7606H29.2085Z" fill="#2F374B"/>
<path d="M48.5049 16.7606C45.8511 16.7606 44.5242 15.5235 44.5242 13.0493V7.1831H42.4736V4.07042H44.5242L45.0067 0.718311H47.9018V4.07042H50.9174V7.1831H47.9018V12.4507C47.9018 12.8019 48.0063 13.0892 48.2154 13.3127C48.4406 13.5362 48.7381 13.6479 49.108 13.6479H50.9174V16.7606H48.5049Z" fill="#2F374B"/>
<path d="M57.9175 14.2465C58.7056 14.2465 59.3409 14.031 59.8234 13.6C60.322 13.1531 60.5713 12.5704 60.5713 11.8521V11.493H57.6763C57.1133 11.493 56.6871 11.6207 56.3976 11.8761C56.1242 12.1155 55.9875 12.4268 55.9875 12.8099C55.9875 13.2408 56.1483 13.592 56.47 13.8634C56.7917 14.1188 57.2742 14.2465 57.9175 14.2465ZM57.0731 17C55.706 17 54.6204 16.6329 53.8162 15.8986C53.012 15.1643 52.61 14.2146 52.61 13.0493C52.61 11.8681 53.0362 10.9183 53.8886 10.2C54.7571 9.46573 55.9794 9.09859 57.5556 9.09859H60.5713V8.5C60.5713 7.90939 60.3783 7.46244 59.9923 7.15916C59.6063 6.85587 59.0755 6.70423 58.4 6.70423C57.9336 6.70423 57.5235 6.80798 57.1696 7.01549C56.8319 7.22301 56.5987 7.4784 56.47 7.78169H53.0925C53.3659 6.64836 53.9529 5.70657 54.8536 4.95634C55.7704 4.2061 56.9927 3.83099 58.5206 3.83099C60.2255 3.83099 61.5524 4.24601 62.5013 5.07606C63.4663 5.9061 63.9488 7.08732 63.9488 8.61972V16.7606H61.0538L60.6919 15.3239H60.5713C59.8154 16.4413 58.6493 17 57.0731 17Z" fill="#2F374B"/>
<path d="M71.0341 13.1211C71.5809 13.7117 72.2725 14.007 73.1089 14.007C73.9452 14.007 74.6368 13.7117 75.1836 13.1211C75.7305 12.5146 76.0039 11.6127 76.0039 10.4155C76.0039 9.21831 75.7305 8.32441 75.1836 7.7338C74.6368 7.12723 73.9452 6.82394 73.1089 6.82394C72.2725 6.82394 71.5809 7.12723 71.0341 7.7338C70.4873 8.32441 70.2138 9.21831 70.2138 10.4155C70.2138 11.6127 70.4873 12.5146 71.0341 13.1211ZM73.8326 17C72.3851 17 71.1788 16.4413 70.2138 15.3239H70.0932L69.7313 16.7606H66.8363V0H70.2138V5.38732H70.3345C71.1708 4.34977 72.3368 3.83099 73.8326 3.83099C75.5053 3.83099 76.8483 4.40563 77.8615 5.55493C78.8748 6.68826 79.3814 8.30845 79.3814 10.4155C79.3814 12.5225 78.8748 14.1507 77.8615 15.3C76.8483 16.4333 75.5053 17 73.8326 17Z" fill="#2F374B"/>
<path d="M81.7968 16.7606V0H85.1743V16.7606H81.7968Z" fill="#2F374B"/>
<path d="M93.8481 17C91.902 17 90.366 16.4254 89.2402 15.2761C88.1304 14.1108 87.5755 12.4906 87.5755 10.4155C87.5755 8.34038 88.1304 6.72817 89.2402 5.57887C90.366 4.41362 91.902 3.83099 93.8481 3.83099C95.6977 3.83099 97.1854 4.4216 98.3112 5.60282C99.4371 6.78404 100 8.30845 100 10.1761L99.8794 11.493H91.0737C91.3632 13.169 92.288 14.007 93.8481 14.007C94.4592 14.007 94.9257 13.9113 95.2473 13.7197C95.569 13.5282 95.8665 13.2249 96.14 12.8099H99.7588C99.421 14.023 98.7696 15.0286 97.8046 15.8268C96.8396 16.6089 95.5207 17 93.8481 17ZM91.0737 8.97887H96.5018C96.3732 8.3723 96.0756 7.8615 95.6092 7.44648C95.1589 7.03146 94.5718 6.82394 93.8481 6.82394C92.4327 6.82394 91.5079 7.54225 91.0737 8.97887Z" fill="#2F374B"/>
</svg>
