<svg width="24" height="24" viewBox="0 0 24 24" fill="none" xmlns="http://www.w3.org/2000/svg">
<path d="M6.72004 1.91992C4.0746 1.91992 1.92004 4.07448 1.92004 6.71992V17.2799C1.92004 19.9254 4.0746 22.0799 6.72004 22.0799H17.28C19.9255 22.0799 22.08 19.9254 22.08 17.2799V6.71992C22.08 4.07448 19.9255 1.91992 17.28 1.91992H6.72004ZM6.24004 7.67992H17.76C17.8464 7.67992 17.9279 7.68967 18.0047 7.71367L13.2863 12.4274C12.5759 13.1378 11.4195 13.1378 10.7091 12.4274L5.99536 7.71367C6.07216 7.68967 6.15364 7.67992 6.24004 7.67992ZM5.31379 8.39523L8.92317 11.9999L5.31379 15.6046C5.28979 15.5278 5.28004 15.4463 5.28004 15.3599V8.63992C5.28004 8.55352 5.28979 8.47203 5.31379 8.39523ZM18.6863 8.39523C18.7103 8.47203 18.72 8.55352 18.72 8.63992V15.3599C18.72 15.4463 18.7103 15.5278 18.6863 15.6046L15.0722 11.9999L18.6863 8.39523ZM9.60004 12.6768L10.0275 13.109C10.5699 13.6514 11.285 13.9199 11.9954 13.9199C12.7106 13.9199 13.4208 13.6514 13.9632 13.109L14.3954 12.6768L18.0047 16.2862C17.9279 16.3102 17.8464 16.3199 17.76 16.3199H6.24004C6.15364 16.3199 6.07216 16.3102 5.99536 16.2862L9.60004 12.6768Z" fill="#2F374B"/>
</svg>
