<svg width="32" height="32" viewBox="0 0 32 32" fill="none" xmlns="http://www.w3.org/2000/svg">
<path d="M0 16C0 7.16344 7.16344 0 16 0C24.8366 0 32 7.16344 32 16C32 24.8366 24.8366 32 16 32C7.16344 32 0 24.8366 0 16Z" fill="#FFDCDC"/>
<path d="M11.275 9C10.0248 9 9 10.0798 9 11.397V17.6661C9 18.9833 10.0248 20.0631 11.275 20.0631H11.8V22.0913C11.8 22.8163 12.6496 23.2636 13.2 22.8289L16.7 20.0631H20.725C21.9752 20.0631 23 18.9833 23 17.6661V11.397C23 10.0798 21.9752 9 20.725 9H11.275ZM11.275 10.1063H20.725C21.4075 10.1063 21.95 10.6779 21.95 11.397V17.6661C21.95 18.3852 21.4075 18.9568 20.725 18.9568H16.525C16.4113 18.9568 16.3007 18.9958 16.2099 19.0677L12.85 21.7225V19.5099C12.85 19.3632 12.7947 19.2225 12.6962 19.1188C12.5978 19.0151 12.4642 18.9568 12.325 18.9568H11.275C10.5925 18.9568 10.05 18.3852 10.05 17.6661V11.397C10.05 10.6779 10.5925 10.1063 11.275 10.1063ZM13.025 12.687C12.9554 12.6859 12.8864 12.6995 12.8218 12.7268C12.7572 12.7541 12.6985 12.7947 12.6489 12.8462C12.5994 12.8977 12.5601 12.959 12.5332 13.0266C12.5064 13.0942 12.4925 13.1668 12.4925 13.2401C12.4925 13.3134 12.5064 13.386 12.5332 13.4536C12.5601 13.5213 12.5994 13.5826 12.6489 13.6341C12.6985 13.6855 12.7572 13.7261 12.8218 13.7534C12.8864 13.7808 12.9554 13.7943 13.025 13.7933H18.975C19.0446 13.7943 19.1136 13.7808 19.1782 13.7534C19.2428 13.7261 19.3015 13.6855 19.3511 13.6341C19.4006 13.5826 19.4399 13.5213 19.4668 13.4536C19.4936 13.386 19.5075 13.3134 19.5075 13.2401C19.5075 13.1668 19.4936 13.0942 19.4668 13.0266C19.4399 12.959 19.4006 12.8977 19.3511 12.8462C19.3015 12.7947 19.2428 12.7541 19.1782 12.7268C19.1136 12.6995 19.0446 12.6859 18.975 12.687H13.025ZM13.025 15.2684C12.9554 15.2673 12.8864 15.2809 12.8218 15.3082C12.7572 15.3355 12.6985 15.3761 12.6489 15.4276C12.5994 15.479 12.5601 15.5404 12.5332 15.608C12.5064 15.6756 12.4925 15.7482 12.4925 15.8215C12.4925 15.8948 12.5064 15.9674 12.5332 16.035C12.5601 16.1027 12.5994 16.164 12.6489 16.2154C12.6985 16.2669 12.7572 16.3075 12.8218 16.3348C12.8864 16.3622 12.9554 16.3757 13.025 16.3747H17.575C17.6446 16.3757 17.7136 16.3622 17.7782 16.3348C17.8428 16.3075 17.9015 16.2669 17.9511 16.2154C18.0006 16.164 18.0399 16.1027 18.0668 16.035C18.0936 15.9674 18.1075 15.8948 18.1075 15.8215C18.1075 15.7482 18.0936 15.6756 18.0668 15.608C18.0399 15.5404 18.0006 15.479 17.9511 15.4276C17.9015 15.3761 17.8428 15.3355 17.7782 15.3082C17.7136 15.2809 17.6446 15.2673 17.575 15.2684H13.025Z" fill="#FB5454"/>
</svg>
