<svg width="24" height="24" viewBox="0 0 24 24" fill="none" xmlns="http://www.w3.org/2000/svg">
<circle cx="12" cy="12" r="9" fill="#C0C0D0"/>
<path d="M8.25 12.75L10.5 15L15.75 9.75" stroke="white" stroke-width="2"/>
<path fill-rule="evenodd" clip-rule="evenodd" d="M12 3C16.9672 3 21 7.03275 21 12C21 16.9672 16.9672 21 12 21C7.03275 21 3 16.9672 3 12C3 7.03275 7.03275 3 12 3ZM12 3.75C16.5533 3.75 20.25 7.44675 20.25 12C20.25 16.5533 16.5533 20.25 12 20.25C7.44675 20.25 3.75 16.5533 3.75 12C3.75 7.44675 7.44675 3.75 12 3.75Z" fill="#C0C0D0"/>
</svg>
