<svg width="56" height="56" viewBox="0 0 56 56" fill="none" xmlns="http://www.w3.org/2000/svg">
<path d="M0 28C0 12.536 12.536 0 28 0C43.464 0 56 12.536 56 28C56 43.464 43.464 56 28 56C12.536 56 0 43.464 0 28Z" fill="#F8F7FF"/>
<path d="M8 28C8 16.9543 16.9543 8 28 8C39.0457 8 48 16.9543 48 28C48 39.0457 39.0457 48 28 48C16.9543 48 8 39.0457 8 28Z" fill="#EBE7FF"/>
<path fill-rule="evenodd" clip-rule="evenodd" d="M23 20.5H33C35.0711 20.5 36.75 22.1789 36.75 24.25V31.75C36.75 33.8211 35.0711 35.5 33 35.5H23C20.9289 35.5 19.25 33.8211 19.25 31.75V24.25C19.25 22.1789 20.9289 20.5 23 20.5ZM23 21.75C21.6193 21.75 20.5 22.8693 20.5 24.25V31.75C20.5 33.1307 21.6193 34.25 23 34.25H33C34.3807 34.25 35.5 33.1307 35.5 31.75V24.25C35.5 22.8693 34.3807 21.75 33 21.75H23Z" fill="#3442BC"/>
<path d="M19.25 24.25H36.75V25.5H19.25V24.25Z" fill="#3442BC"/>
<path d="M23 29.875C23 29.5298 23.2798 29.25 23.625 29.25H27.375C27.7202 29.25 28 29.5298 28 29.875C28 30.2202 27.7202 30.5 27.375 30.5H23.625C23.2798 30.5 23 30.2202 23 29.875Z" fill="#3442BC"/>
</svg>
