<svg width="56" height="56" viewBox="0 0 56 56" fill="none" xmlns="http://www.w3.org/2000/svg">
<path d="M0 28C0 12.536 12.536 0 28 0C43.464 0 56 12.536 56 28C56 43.464 43.464 56 28 56C12.536 56 0 43.464 0 28Z" fill="#FFF4F4"/>
<path d="M8 28C8 16.9543 16.9543 8 28 8C39.0457 8 48 16.9543 48 28C48 39.0457 39.0457 48 28 48C16.9543 48 8 39.0457 8 28Z" fill="#FFE2E2"/>
<path d="M22.6 20C21.1712 20 20 21.234 20 22.7394V29.9041C20 31.4095 21.1712 32.6435 22.6 32.6435H23.2V34.9615C23.2 35.7901 24.1709 36.3013 24.8 35.8044L28.8 32.6435H33.4C34.8288 32.6435 36 31.4095 36 29.9041V22.7394C36 21.234 34.8288 20 33.4 20H22.6ZM22.6 21.2644H33.4C34.18 21.2644 34.8 21.9176 34.8 22.7394V29.9041C34.8 30.7259 34.18 31.3792 33.4 31.3792H28.6C28.4701 31.3792 28.3437 31.4237 28.2398 31.5059L24.4 34.54V32.0113C24.4 31.8437 24.3368 31.6829 24.2242 31.5643C24.1117 31.4458 23.9591 31.3792 23.8 31.3792H22.6C21.82 31.3792 21.2 30.7259 21.2 29.9041V22.7394C21.2 21.9176 21.82 21.2644 22.6 21.2644ZM24.6 24.2137C24.5205 24.2125 24.4416 24.228 24.3678 24.2592C24.294 24.2905 24.2268 24.3368 24.1702 24.3956C24.1136 24.4545 24.0686 24.5246 24.0379 24.6018C24.0073 24.6791 23.9915 24.7621 23.9915 24.8459C23.9915 24.9296 24.0073 25.0126 24.0379 25.0899C24.0686 25.1672 24.1136 25.2373 24.1702 25.2961C24.2268 25.3549 24.294 25.4013 24.3678 25.4325C24.4416 25.4637 24.5205 25.4792 24.6 25.478H31.4C31.4795 25.4792 31.5584 25.4637 31.6322 25.4325C31.706 25.4013 31.7732 25.3549 31.8298 25.2961C31.8864 25.2373 31.9314 25.1672 31.9621 25.0899C31.9927 25.0126 32.0085 24.9296 32.0085 24.8459C32.0085 24.7621 31.9927 24.6791 31.9621 24.6018C31.9314 24.5246 31.8864 24.4545 31.8298 24.3956C31.7732 24.3368 31.706 24.2905 31.6322 24.2592C31.5584 24.228 31.4795 24.2125 31.4 24.2137H24.6ZM24.6 27.1638C24.5205 27.1627 24.4416 27.1781 24.3678 27.2094C24.294 27.2406 24.2268 27.287 24.1702 27.3458C24.1136 27.4046 24.0686 27.4747 24.0379 27.552C24.0073 27.6293 23.9915 27.7122 23.9915 27.796C23.9915 27.8798 24.0073 27.9627 24.0379 28.04C24.0686 28.1173 24.1136 28.1874 24.1702 28.2462C24.2268 28.305 24.294 28.3514 24.3678 28.3827C24.4416 28.4139 24.5205 28.4294 24.6 28.4282H29.8C29.8795 28.4294 29.9584 28.4139 30.0322 28.3827C30.106 28.3514 30.1732 28.305 30.2298 28.2462C30.2864 28.1874 30.3314 28.1173 30.3621 28.04C30.3927 27.9627 30.4085 27.8798 30.4085 27.796C30.4085 27.7122 30.3927 27.6293 30.3621 27.552C30.3314 27.4747 30.2864 27.4046 30.2298 27.3458C30.1732 27.287 30.106 27.2406 30.0322 27.2094C29.9584 27.1781 29.8795 27.1627 29.8 27.1638H24.6Z" fill="#FB5454"/>
</svg>
