<svg width="56" height="56" viewBox="0 0 56 56" fill="none" xmlns="http://www.w3.org/2000/svg">
<path d="M0 28C0 12.536 12.536 0 28 0C43.464 0 56 12.536 56 28C56 43.464 43.464 56 28 56C12.536 56 0 43.464 0 28Z" fill="#F4F5F7"/>
<path d="M8 28C8 16.9543 16.9543 8 28 8C39.0457 8 48 16.9543 48 28C48 39.0457 39.0457 48 28 48C16.9543 48 8 39.0457 8 28Z" fill="#E2EFFF"/>
<path d="M32.3911 29.7051C32.1064 29.2068 31.6629 28.7691 31.0624 28.3935C30.461 28.0172 29.624 27.6727 28.5522 27.3594C27.4804 27.0468 26.7105 26.6991 26.2433 26.3154C25.7753 25.9333 25.5413 25.4186 25.5413 24.7731C25.5413 24.0776 25.763 23.5344 26.2065 23.1457C26.6491 22.7563 27.2889 22.5624 28.1251 22.5624C28.9261 22.5624 29.5635 22.825 30.0339 23.3511C30.2548 23.5974 30.4234 23.8837 30.5412 24.2102C30.5993 24.373 30.704 24.7494 30.7097 24.7657C30.8742 25.2583 31.1548 25.5455 31.6392 25.5455C32.1743 25.5455 32.6079 25.2067 32.6079 24.5767C32.6079 24.4581 32.5825 24.3329 32.567 24.2593C32.4197 23.5262 32.1293 22.9134 31.694 22.42C31.0362 21.6755 30.1174 21.2295 28.9359 21.0847L28.9318 21.0839V19.8182C28.9318 19.3665 28.5653 19 28.1136 19C27.662 19 27.2955 19.3665 27.2955 19.8182V21.0872C26.1565 21.2222 25.2549 21.61 24.5979 22.2588C23.9262 22.9224 23.5899 23.7716 23.5899 24.8075C23.5899 25.8245 23.9327 26.6631 24.6184 27.3234C25.304 27.9828 26.3955 28.5187 27.8927 28.9295C28.9686 29.2518 29.7328 29.6118 30.1869 30.0095C30.6394 30.4079 30.8668 30.8972 30.8668 31.4781C30.8668 32.167 30.6025 32.7103 30.0756 33.1079C29.5479 33.5055 28.8238 33.7044 27.9025 33.7044C26.9608 33.7044 26.1312 33.4679 25.6182 32.9942C25.2729 32.6759 25.0446 32.266 24.9317 31.7645C24.9276 31.7456 24.8679 31.5534 24.8254 31.474C24.665 31.1713 24.3385 30.9675 23.9712 30.9675C23.4353 30.9659 23 31.4012 23 31.9379C23 32.1735 23.1178 32.5074 23.1538 32.6055C23.3379 33.1087 23.6365 33.5661 24.0105 33.9351C24.7329 34.6461 25.8309 35.056 27.0909 35.1763V36.1818C27.0909 36.6335 27.4566 37 27.9083 37C28.3599 37 28.7265 36.6335 28.7265 36.1818V35.1918L28.7469 35.191C30.0331 35.0707 31.0337 34.6862 31.7472 34.0349C32.4606 33.3845 32.8182 32.5254 32.8182 31.4585C32.8182 30.7892 32.675 30.2042 32.3911 29.7051Z" fill="#3467BC"/>
</svg>
