<svg width="56" height="56" viewBox="0 0 56 56" fill="none" xmlns="http://www.w3.org/2000/svg">
<path d="M0 28C0 12.536 12.536 0 28 0C43.464 0 56 12.536 56 28C56 43.464 43.464 56 28 56C12.536 56 0 43.464 0 28Z" fill="#F4F5F6"/>
<path d="M8 28C8 16.9543 16.9543 8 28 8C39.0457 8 48 16.9543 48 28C48 39.0457 39.0457 48 28 48C16.9543 48 8 39.0457 8 28Z" fill="#D0FFF2"/>
<path fill-rule="evenodd" clip-rule="evenodd" d="M29.1429 32.5714C32.2988 32.5714 34.8571 30.0131 34.8571 26.8571C34.8571 23.7012 32.2988 21.1429 29.1429 21.1429C25.9869 21.1429 23.4286 23.7012 23.4286 26.8571C23.4286 30.0131 25.9869 32.5714 29.1429 32.5714ZM29.1429 33.7143C32.93 33.7143 36 30.6442 36 26.8571C36 23.07 32.93 20 29.1429 20C25.3558 20 22.2857 23.07 22.2857 26.8571C22.2857 30.6442 25.3558 33.7143 29.1429 33.7143Z" fill="#1EB88D"/>
<path fill-rule="evenodd" clip-rule="evenodd" d="M24.9755 31.0245C25.1986 31.2477 25.1986 31.6095 24.9755 31.8326L20.9755 35.8326C20.7523 36.0558 20.3905 36.0558 20.1674 35.8326C19.9442 35.6095 19.9442 35.2477 20.1674 35.0245L24.1674 31.0245C24.3905 30.8014 24.7523 30.8014 24.9755 31.0245Z" fill="#1EB88D"/>
</svg>
