<svg width="24" height="24" viewBox="0 0 24 24" fill="none" xmlns="http://www.w3.org/2000/svg">
<path d="M19.2 3.19995H4.79995C3.91595 3.19995 3.19995 3.91595 3.19995 4.79995V19.2C3.19995 20.084 3.91595 20.7999 4.79995 20.7999H12.8V13.6H10.4V11.2H12.8V9.91115C12.8 7.47115 13.9888 6.39995 16.0168 6.39995C16.988 6.39995 17.5015 6.47195 17.7448 6.50475V8.79995H16.3616C15.5008 8.79995 15.2 9.25435 15.2 10.1744V11.2H17.7231L17.3808 13.6H15.2V20.7999H19.2C20.084 20.7999 20.7999 20.084 20.7999 19.2V4.79995C20.7999 3.91595 20.0832 3.19995 19.2 3.19995Z" fill="#2F374B"/>
</svg>
