<svg width="64" height="64" viewBox="0 0 64 64" fill="none" xmlns="http://www.w3.org/2000/svg">
<path d="M0 32C0 14.3269 14.3269 0 32 0C49.6731 0 64 14.3269 64 32C64 49.6731 49.6731 64 32 64C14.3269 64 0 49.6731 0 32Z" fill="#E9F5FF"/>
<path d="M8 32C8 18.7452 18.7452 8 32 8C45.2548 8 56 18.7452 56 32C56 45.2548 45.2548 56 32 56C18.7452 56 8 45.2548 8 32Z" fill="#3AACFF"/>
<path d="M30.4188 21.9999C29.9171 21.9999 29.4883 22.3554 29.3919 22.8489L29.0421 24.6495C28.1825 24.9754 27.3877 25.4307 26.6897 26.0051L24.9674 25.4104C24.493 25.2466 23.971 25.4432 23.7196 25.8779L22.1404 28.6219C21.8901 29.0576 21.9812 29.6108 22.3593 29.9405L23.7401 31.1443C23.6683 31.5868 23.6214 32.0372 23.6214 32.4999C23.6214 32.9627 23.6683 33.4131 23.7401 33.8555L22.3593 35.0593C21.9812 35.389 21.8901 35.9422 22.1404 36.3779L23.7196 39.1219C23.9699 39.5576 24.493 39.7543 24.9674 39.5915L26.6897 38.9968C27.3875 39.5708 28.1829 40.0246 29.0421 40.3503L29.3919 42.1509C29.4883 42.6444 29.9171 42.9999 30.4188 42.9999H33.5812C34.0829 42.9999 34.5117 42.6444 34.6081 42.1509L34.9579 40.3503C35.8175 40.0244 36.6123 39.5691 37.3103 38.9947L39.0326 39.5895C39.507 39.7533 40.029 39.5576 40.2804 39.1219L41.8596 36.3759C42.1099 35.9401 42.0188 35.389 41.6407 35.0593L40.2599 33.8555C40.3317 33.4131 40.3786 32.9627 40.3786 32.4999C40.3786 32.0372 40.3317 31.5868 40.2599 31.1443L41.6407 29.9405C42.0188 29.6108 42.1099 29.0576 41.8596 28.6219L40.2804 25.8779C40.0301 25.4422 39.507 25.2456 39.0326 25.4083L37.3103 26.003C36.6125 25.429 35.8171 24.9753 34.9579 24.6495L34.6081 22.8489C34.5117 22.3554 34.0829 21.9999 33.5812 21.9999H30.4188ZM32 28.2999C34.3135 28.2999 36.1893 30.1805 36.1893 32.4999C36.1893 34.8194 34.3135 36.6999 32 36.6999C29.6865 36.6999 27.8107 34.8194 27.8107 32.4999C27.8107 30.1805 29.6865 28.2999 32 28.2999Z" fill="white"/>
</svg>
