<svg width="64" height="64" viewBox="0 0 64 64" fill="none" xmlns="http://www.w3.org/2000/svg">
<path d="M0 32C0 14.3269 14.3269 0 32 0C49.6731 0 64 14.3269 64 32C64 49.6731 49.6731 64 32 64C14.3269 64 0 49.6731 0 32Z" fill="#EEF5FF"/>
<path d="M8 32C8 18.7452 18.7452 8 32 8C45.2548 8 56 18.7452 56 32C56 45.2548 45.2548 56 32 56C18.7452 56 8 45.2548 8 32Z" fill="#3467BC"/>
<path d="M39 23H34.816C34.403 21.837 33.304 21 32 21C30.696 21 29.597 21.837 29.184 23H25C23.895 23 23 23.895 23 25V39C23 40.105 23.895 41 25 41H39C40.105 41 41 40.105 41 39V25C41 23.895 40.105 23 39 23ZM32 23C32.552 23 33 23.448 33 24C33 24.552 32.552 25 32 25C31.448 25 31 24.552 31 24C31 23.448 31.448 23 32 23ZM30.293 35.707L27.523 32.937C27.133 32.547 27.133 31.913 27.523 31.523C27.913 31.133 28.547 31.133 28.937 31.523L31 33.586L36.085 28.501C36.475 28.111 37.109 28.111 37.499 28.501C37.889 28.891 37.889 29.525 37.499 29.915L31.707 35.707C31.317 36.097 30.683 36.097 30.293 35.707Z" fill="white"/>
</svg>
