<svg width="64" height="64" viewBox="0 0 64 64" fill="none" xmlns="http://www.w3.org/2000/svg">
<path opacity="0.5" d="M0 32C0 14.3269 14.3269 0 32 0C49.6731 0 64 14.3269 64 32C64 49.6731 49.6731 64 32 64C14.3269 64 0 49.6731 0 32Z" fill="#E2FEF6"/>
<path d="M8 32C8 18.7452 18.7452 8 32 8C45.2548 8 56 18.7452 56 32C56 45.2548 45.2548 56 32 56C18.7452 56 8 45.2548 8 32Z" fill="#1EB88D"/>
<path d="M32.0244 21C31.831 20.994 31.6428 21.0629 31.499 21.1924C31.499 21.1924 27.7451 24.5 23.25 24.5C23.0511 24.5 22.8603 24.579 22.7197 24.7197C22.579 24.8603 22.5 25.0511 22.5 25.25V31.3799C22.5 34.7189 24.0447 40.2132 31.709 43.4414C31.8011 43.4802 31.9 43.5002 32 43.5002C32.1 43.5002 32.1989 43.4802 32.291 43.4414C39.9553 40.2132 41.5 34.7189 41.5 31.3799V25.25C41.5 25.0511 41.421 24.8603 41.2803 24.7197C41.1397 24.579 40.9489 24.5 40.75 24.5C36.2549 24.5 32.501 21.1924 32.501 21.1924C32.3697 21.0741 32.201 21.006 32.0244 21ZM32 27C32.41 27 32.9645 27.94 33.2695 29.5H30.7305C31.0355 27.94 31.59 27 32 27ZM30.4102 27.2598C30.0952 27.8648 29.865 28.64 29.71 29.5H27.6699C28.2749 28.455 29.2452 27.6498 30.4102 27.2598ZM33.5898 27.2598C34.7548 27.6498 35.7251 28.455 36.3301 29.5H34.29C34.135 28.64 33.9048 27.8648 33.5898 27.2598ZM27.2305 30.5H29.5752C29.5252 30.99 29.5 31.495 29.5 32C29.5 32.505 29.5252 33.01 29.5752 33.5H27.2305C27.0805 33.025 27 32.525 27 32C27 31.475 27.0805 30.975 27.2305 30.5ZM30.5801 30.5H33.4199C33.4699 30.965 33.5 31.465 33.5 32C33.5 32.535 33.4699 33.035 33.4199 33.5H30.5801C30.5301 33.035 30.5 32.535 30.5 32C30.5 31.465 30.5301 30.965 30.5801 30.5ZM34.4248 30.5H36.7695C36.9195 30.975 37 31.475 37 32C37 32.525 36.9195 33.025 36.7695 33.5H34.4248C34.4748 33.01 34.5 32.505 34.5 32C34.5 31.495 34.4748 30.99 34.4248 30.5ZM27.6699 34.5H29.71C29.865 35.36 30.0952 36.1352 30.4102 36.7402C29.2452 36.3502 28.2749 35.545 27.6699 34.5ZM30.7305 34.5H33.2695C32.9645 36.06 32.41 37 32 37C31.59 37 31.0355 36.06 30.7305 34.5ZM34.29 34.5H36.3301C35.7251 35.545 34.7548 36.3502 33.5898 36.7402C33.9048 36.1352 34.135 35.36 34.29 34.5Z" fill="white"/>
</svg>
